%TF.GenerationSoftware,KiCad,Pcbnew,8.0.8*%
%TF.CreationDate,2025-07-18T16:58:46-07:00*%
%TF.ProjectId,,58585858-5858-4585-9858-585858585858,rev?*%
%TF.SameCoordinates,Original*%
%TF.FileFunction,Soldermask,Top*%
%TF.FilePolarity,Negative*%
%FSLAX46Y46*%
G04 Gerber Fmt 4.6, Leading zero omitted, Abs format (unit mm)*
G04 Created by KiCad (PCBNEW 8.0.8) date 2025-07-18 16:58:46*
%MOMM*%
%LPD*%
G01*
G04 APERTURE LIST*
%ADD10C,2.000000*%
G04 APERTURE END LIST*
G36*
X21250000Y-21850000D02*
G01*
X21750000Y-21850000D01*
X21750000Y-22350000D01*
X21250000Y-22350000D01*
X21250000Y-21850000D01*
G37*
G36*
X21250000Y-12650000D02*
G01*
X21750000Y-12650000D01*
X21750000Y-13150000D01*
X21250000Y-13150000D01*
X21250000Y-12650000D01*
G37*
G36*
X20107142Y-21850000D02*
G01*
X20607142Y-21850000D01*
X20607142Y-22350000D01*
X20107142Y-22350000D01*
X20107142Y-21850000D01*
G37*
G36*
X20107142Y-12650000D02*
G01*
X20607142Y-12650000D01*
X20607142Y-13150000D01*
X20107142Y-13150000D01*
X20107142Y-12650000D01*
G37*
G36*
X18964285Y-21850000D02*
G01*
X19464285Y-21850000D01*
X19464285Y-22350000D01*
X18964285Y-22350000D01*
X18964285Y-21850000D01*
G37*
G36*
X18964285Y-12650000D02*
G01*
X19464285Y-12650000D01*
X19464285Y-13150000D01*
X18964285Y-13150000D01*
X18964285Y-12650000D01*
G37*
G36*
X17821428Y-21850000D02*
G01*
X18321428Y-21850000D01*
X18321428Y-22350000D01*
X17821428Y-22350000D01*
X17821428Y-21850000D01*
G37*
G36*
X17821428Y-12650000D02*
G01*
X18321428Y-12650000D01*
X18321428Y-13150000D01*
X17821428Y-13150000D01*
X17821428Y-12650000D01*
G37*
G36*
X16678571Y-21850000D02*
G01*
X17178571Y-21850000D01*
X17178571Y-22350000D01*
X16678571Y-22350000D01*
X16678571Y-21850000D01*
G37*
G36*
X16678571Y-12650000D02*
G01*
X17178571Y-12650000D01*
X17178571Y-13150000D01*
X16678571Y-13150000D01*
X16678571Y-12650000D01*
G37*
G36*
X15535714Y-21850000D02*
G01*
X16035714Y-21850000D01*
X16035714Y-22350000D01*
X15535714Y-22350000D01*
X15535714Y-21850000D01*
G37*
G36*
X15535714Y-12650000D02*
G01*
X16035714Y-12650000D01*
X16035714Y-13150000D01*
X15535714Y-13150000D01*
X15535714Y-12650000D01*
G37*
G36*
X14392857Y-21850000D02*
G01*
X14892857Y-21850000D01*
X14892857Y-22350000D01*
X14392857Y-22350000D01*
X14392857Y-21850000D01*
G37*
G36*
X14392857Y-12650000D02*
G01*
X14892857Y-12650000D01*
X14892857Y-13150000D01*
X14392857Y-13150000D01*
X14392857Y-12650000D01*
G37*
G36*
X13250000Y-21850000D02*
G01*
X13750000Y-21850000D01*
X13750000Y-22350000D01*
X13250000Y-22350000D01*
X13250000Y-21850000D01*
G37*
G36*
X13250000Y-12650000D02*
G01*
X13750000Y-12650000D01*
X13750000Y-13150000D01*
X13250000Y-13150000D01*
X13250000Y-12650000D01*
G37*
D10*
%TO.C,*%
X32000000Y-32000000D03*
%TD*%
%TO.C,*%
X32000000Y-3000000D03*
%TD*%
%TO.C,*%
X27857142Y-32000000D03*
%TD*%
%TO.C,*%
X27857142Y-3000000D03*
%TD*%
%TO.C,*%
X23714285Y-32000000D03*
%TD*%
%TO.C,*%
X23714285Y-3000000D03*
%TD*%
%TO.C,*%
X19571428Y-32000000D03*
%TD*%
%TO.C,*%
X19571428Y-3000000D03*
%TD*%
%TO.C,*%
X15428571Y-32000000D03*
%TD*%
%TO.C,*%
X15428571Y-3000000D03*
%TD*%
%TO.C,*%
X11285714Y-32000000D03*
%TD*%
%TO.C,*%
X11285714Y-3000000D03*
%TD*%
%TO.C,*%
X7142857Y-32000000D03*
%TD*%
%TO.C,*%
X7142857Y-3000000D03*
%TD*%
%TO.C,*%
X3000000Y-32000000D03*
%TD*%
%TO.C,*%
X3000000Y-3000000D03*
%TD*%
M02*
