%TF.GenerationSoftware,KiCad,Pcbnew,8.0.8*%
%TF.CreationDate,2025-07-18T16:58:47-07:00*%
%TF.ProjectId,,58585858-5858-4585-9858-585858585858,rev?*%
%TF.SameCoordinates,Original*%
%TF.FileFunction,Legend,Top*%
%TF.FilePolarity,Positive*%
%FSLAX46Y46*%
G04 Gerber Fmt 4.6, Leading zero omitted, Abs format (unit mm)*
G04 Created by KiCad (PCBNEW 8.0.8) date 2025-07-18 16:58:47*
%MOMM*%
%LPD*%
G01*
G04 APERTURE LIST*
%ADD10C,0.187500*%
%ADD11C,0.250000*%
%ADD12C,0.312500*%
%ADD13C,0.150000*%
%ADD14C,0.350000*%
G04 APERTURE END LIST*
D10*
X31438321Y-9428571D02*
X32938321Y-9428571D01*
X32938321Y-9428571D02*
X31438321Y-10285714D01*
X31438321Y-10285714D02*
X32938321Y-10285714D01*
X31438321Y-11214286D02*
X31509750Y-11071429D01*
X31509750Y-11071429D02*
X31581178Y-11000000D01*
X31581178Y-11000000D02*
X31724035Y-10928572D01*
X31724035Y-10928572D02*
X32152607Y-10928572D01*
X32152607Y-10928572D02*
X32295464Y-11000000D01*
X32295464Y-11000000D02*
X32366892Y-11071429D01*
X32366892Y-11071429D02*
X32438321Y-11214286D01*
X32438321Y-11214286D02*
X32438321Y-11428572D01*
X32438321Y-11428572D02*
X32366892Y-11571429D01*
X32366892Y-11571429D02*
X32295464Y-11642858D01*
X32295464Y-11642858D02*
X32152607Y-11714286D01*
X32152607Y-11714286D02*
X31724035Y-11714286D01*
X31724035Y-11714286D02*
X31581178Y-11642858D01*
X31581178Y-11642858D02*
X31509750Y-11571429D01*
X31509750Y-11571429D02*
X31438321Y-11428572D01*
X31438321Y-11428572D02*
X31438321Y-11214286D01*
X32438321Y-12214286D02*
X31438321Y-12571429D01*
X32438321Y-12928572D02*
X31438321Y-12571429D01*
X31438321Y-12571429D02*
X31081178Y-12428572D01*
X31081178Y-12428572D02*
X31009750Y-12357143D01*
X31009750Y-12357143D02*
X30938321Y-12214286D01*
X31509750Y-14142858D02*
X31438321Y-14000000D01*
X31438321Y-14000000D02*
X31438321Y-13714286D01*
X31438321Y-13714286D02*
X31509750Y-13571429D01*
X31509750Y-13571429D02*
X31581178Y-13500000D01*
X31581178Y-13500000D02*
X31724035Y-13428572D01*
X31724035Y-13428572D02*
X32152607Y-13428572D01*
X32152607Y-13428572D02*
X32295464Y-13500000D01*
X32295464Y-13500000D02*
X32366892Y-13571429D01*
X32366892Y-13571429D02*
X32438321Y-13714286D01*
X32438321Y-13714286D02*
X32438321Y-14000000D01*
X32438321Y-14000000D02*
X32366892Y-14142858D01*
X31509750Y-15357143D02*
X31438321Y-15214286D01*
X31438321Y-15214286D02*
X31438321Y-14928572D01*
X31438321Y-14928572D02*
X31509750Y-14785714D01*
X31509750Y-14785714D02*
X31652607Y-14714286D01*
X31652607Y-14714286D02*
X32224035Y-14714286D01*
X32224035Y-14714286D02*
X32366892Y-14785714D01*
X32366892Y-14785714D02*
X32438321Y-14928572D01*
X32438321Y-14928572D02*
X32438321Y-15214286D01*
X32438321Y-15214286D02*
X32366892Y-15357143D01*
X32366892Y-15357143D02*
X32224035Y-15428572D01*
X32224035Y-15428572D02*
X32081178Y-15428572D01*
X32081178Y-15428572D02*
X31938321Y-14714286D01*
X31438321Y-17214285D02*
X32438321Y-17214285D01*
X32938321Y-17214285D02*
X32866892Y-17142857D01*
X32866892Y-17142857D02*
X32795464Y-17214285D01*
X32795464Y-17214285D02*
X32866892Y-17285714D01*
X32866892Y-17285714D02*
X32938321Y-17214285D01*
X32938321Y-17214285D02*
X32795464Y-17214285D01*
X31438321Y-18142857D02*
X31509750Y-18000000D01*
X31509750Y-18000000D02*
X31581178Y-17928571D01*
X31581178Y-17928571D02*
X31724035Y-17857143D01*
X31724035Y-17857143D02*
X32152607Y-17857143D01*
X32152607Y-17857143D02*
X32295464Y-17928571D01*
X32295464Y-17928571D02*
X32366892Y-18000000D01*
X32366892Y-18000000D02*
X32438321Y-18142857D01*
X32438321Y-18142857D02*
X32438321Y-18357143D01*
X32438321Y-18357143D02*
X32366892Y-18500000D01*
X32366892Y-18500000D02*
X32295464Y-18571429D01*
X32295464Y-18571429D02*
X32152607Y-18642857D01*
X32152607Y-18642857D02*
X31724035Y-18642857D01*
X31724035Y-18642857D02*
X31581178Y-18571429D01*
X31581178Y-18571429D02*
X31509750Y-18500000D01*
X31509750Y-18500000D02*
X31438321Y-18357143D01*
X31438321Y-18357143D02*
X31438321Y-18142857D01*
X32438321Y-19285714D02*
X31438321Y-19285714D01*
X32295464Y-19285714D02*
X32366892Y-19357143D01*
X32366892Y-19357143D02*
X32438321Y-19500000D01*
X32438321Y-19500000D02*
X32438321Y-19714286D01*
X32438321Y-19714286D02*
X32366892Y-19857143D01*
X32366892Y-19857143D02*
X32224035Y-19928572D01*
X32224035Y-19928572D02*
X31438321Y-19928572D01*
X32438321Y-21571429D02*
X32438321Y-22142857D01*
X32938321Y-21785714D02*
X31652607Y-21785714D01*
X31652607Y-21785714D02*
X31509750Y-21857143D01*
X31509750Y-21857143D02*
X31438321Y-22000000D01*
X31438321Y-22000000D02*
X31438321Y-22142857D01*
X31438321Y-22642857D02*
X32438321Y-22642857D01*
X32152607Y-22642857D02*
X32295464Y-22714286D01*
X32295464Y-22714286D02*
X32366892Y-22785715D01*
X32366892Y-22785715D02*
X32438321Y-22928572D01*
X32438321Y-22928572D02*
X32438321Y-23071429D01*
X31438321Y-24214286D02*
X32224035Y-24214286D01*
X32224035Y-24214286D02*
X32366892Y-24142857D01*
X32366892Y-24142857D02*
X32438321Y-24000000D01*
X32438321Y-24000000D02*
X32438321Y-23714286D01*
X32438321Y-23714286D02*
X32366892Y-23571428D01*
X31509750Y-24214286D02*
X31438321Y-24071428D01*
X31438321Y-24071428D02*
X31438321Y-23714286D01*
X31438321Y-23714286D02*
X31509750Y-23571428D01*
X31509750Y-23571428D02*
X31652607Y-23500000D01*
X31652607Y-23500000D02*
X31795464Y-23500000D01*
X31795464Y-23500000D02*
X31938321Y-23571428D01*
X31938321Y-23571428D02*
X32009750Y-23714286D01*
X32009750Y-23714286D02*
X32009750Y-24071428D01*
X32009750Y-24071428D02*
X32081178Y-24214286D01*
X32438321Y-24928571D02*
X30938321Y-24928571D01*
X32366892Y-24928571D02*
X32438321Y-25071429D01*
X32438321Y-25071429D02*
X32438321Y-25357143D01*
X32438321Y-25357143D02*
X32366892Y-25500000D01*
X32366892Y-25500000D02*
X32295464Y-25571429D01*
X32295464Y-25571429D02*
X32152607Y-25642857D01*
X32152607Y-25642857D02*
X31724035Y-25642857D01*
X31724035Y-25642857D02*
X31581178Y-25571429D01*
X31581178Y-25571429D02*
X31509750Y-25500000D01*
X31509750Y-25500000D02*
X31438321Y-25357143D01*
X31438321Y-25357143D02*
X31438321Y-25071429D01*
X31438321Y-25071429D02*
X31509750Y-24928571D01*
X30523405Y-12285715D02*
X29451976Y-12285715D01*
X29451976Y-12285715D02*
X29237691Y-12214286D01*
X29237691Y-12214286D02*
X29094834Y-12071429D01*
X29094834Y-12071429D02*
X29023405Y-11857143D01*
X29023405Y-11857143D02*
X29023405Y-11714286D01*
X30023405Y-13642858D02*
X29023405Y-13642858D01*
X30023405Y-13000000D02*
X29237691Y-13000000D01*
X29237691Y-13000000D02*
X29094834Y-13071429D01*
X29094834Y-13071429D02*
X29023405Y-13214286D01*
X29023405Y-13214286D02*
X29023405Y-13428572D01*
X29023405Y-13428572D02*
X29094834Y-13571429D01*
X29094834Y-13571429D02*
X29166262Y-13642858D01*
X29023405Y-14571429D02*
X29094834Y-14428572D01*
X29094834Y-14428572D02*
X29237691Y-14357143D01*
X29237691Y-14357143D02*
X30523405Y-14357143D01*
X30023405Y-15000000D02*
X29023405Y-15357143D01*
X30023405Y-15714286D02*
X29023405Y-15357143D01*
X29023405Y-15357143D02*
X28666262Y-15214286D01*
X28666262Y-15214286D02*
X28594834Y-15142857D01*
X28594834Y-15142857D02*
X28523405Y-15000000D01*
X29094834Y-16357143D02*
X29023405Y-16357143D01*
X29023405Y-16357143D02*
X28880548Y-16285714D01*
X28880548Y-16285714D02*
X28809119Y-16214286D01*
X30380548Y-18071429D02*
X30451976Y-18142857D01*
X30451976Y-18142857D02*
X30523405Y-18285715D01*
X30523405Y-18285715D02*
X30523405Y-18642857D01*
X30523405Y-18642857D02*
X30451976Y-18785715D01*
X30451976Y-18785715D02*
X30380548Y-18857143D01*
X30380548Y-18857143D02*
X30237691Y-18928572D01*
X30237691Y-18928572D02*
X30094834Y-18928572D01*
X30094834Y-18928572D02*
X29880548Y-18857143D01*
X29880548Y-18857143D02*
X29023405Y-18000000D01*
X29023405Y-18000000D02*
X29023405Y-18928572D01*
X30523405Y-19857143D02*
X30523405Y-20000000D01*
X30523405Y-20000000D02*
X30451976Y-20142857D01*
X30451976Y-20142857D02*
X30380548Y-20214286D01*
X30380548Y-20214286D02*
X30237691Y-20285714D01*
X30237691Y-20285714D02*
X29951976Y-20357143D01*
X29951976Y-20357143D02*
X29594834Y-20357143D01*
X29594834Y-20357143D02*
X29309119Y-20285714D01*
X29309119Y-20285714D02*
X29166262Y-20214286D01*
X29166262Y-20214286D02*
X29094834Y-20142857D01*
X29094834Y-20142857D02*
X29023405Y-20000000D01*
X29023405Y-20000000D02*
X29023405Y-19857143D01*
X29023405Y-19857143D02*
X29094834Y-19714286D01*
X29094834Y-19714286D02*
X29166262Y-19642857D01*
X29166262Y-19642857D02*
X29309119Y-19571428D01*
X29309119Y-19571428D02*
X29594834Y-19500000D01*
X29594834Y-19500000D02*
X29951976Y-19500000D01*
X29951976Y-19500000D02*
X30237691Y-19571428D01*
X30237691Y-19571428D02*
X30380548Y-19642857D01*
X30380548Y-19642857D02*
X30451976Y-19714286D01*
X30451976Y-19714286D02*
X30523405Y-19857143D01*
X30380548Y-20928571D02*
X30451976Y-20999999D01*
X30451976Y-20999999D02*
X30523405Y-21142857D01*
X30523405Y-21142857D02*
X30523405Y-21499999D01*
X30523405Y-21499999D02*
X30451976Y-21642857D01*
X30451976Y-21642857D02*
X30380548Y-21714285D01*
X30380548Y-21714285D02*
X30237691Y-21785714D01*
X30237691Y-21785714D02*
X30094834Y-21785714D01*
X30094834Y-21785714D02*
X29880548Y-21714285D01*
X29880548Y-21714285D02*
X29023405Y-20857142D01*
X29023405Y-20857142D02*
X29023405Y-21785714D01*
X30523405Y-23142856D02*
X30523405Y-22428570D01*
X30523405Y-22428570D02*
X29809119Y-22357142D01*
X29809119Y-22357142D02*
X29880548Y-22428570D01*
X29880548Y-22428570D02*
X29951976Y-22571428D01*
X29951976Y-22571428D02*
X29951976Y-22928570D01*
X29951976Y-22928570D02*
X29880548Y-23071428D01*
X29880548Y-23071428D02*
X29809119Y-23142856D01*
X29809119Y-23142856D02*
X29666262Y-23214285D01*
X29666262Y-23214285D02*
X29309119Y-23214285D01*
X29309119Y-23214285D02*
X29166262Y-23142856D01*
X29166262Y-23142856D02*
X29094834Y-23071428D01*
X29094834Y-23071428D02*
X29023405Y-22928570D01*
X29023405Y-22928570D02*
X29023405Y-22571428D01*
X29023405Y-22571428D02*
X29094834Y-22428570D01*
X29094834Y-22428570D02*
X29166262Y-22357142D01*
X28108489Y-12785713D02*
X26894203Y-12785713D01*
X26894203Y-12785713D02*
X26751346Y-12857142D01*
X26751346Y-12857142D02*
X26679918Y-12928571D01*
X26679918Y-12928571D02*
X26608489Y-13071428D01*
X26608489Y-13071428D02*
X26608489Y-13357142D01*
X26608489Y-13357142D02*
X26679918Y-13499999D01*
X26679918Y-13499999D02*
X26751346Y-13571428D01*
X26751346Y-13571428D02*
X26894203Y-13642856D01*
X26894203Y-13642856D02*
X28108489Y-13642856D01*
X26751346Y-15214285D02*
X26679918Y-15142857D01*
X26679918Y-15142857D02*
X26608489Y-14928571D01*
X26608489Y-14928571D02*
X26608489Y-14785714D01*
X26608489Y-14785714D02*
X26679918Y-14571428D01*
X26679918Y-14571428D02*
X26822775Y-14428571D01*
X26822775Y-14428571D02*
X26965632Y-14357142D01*
X26965632Y-14357142D02*
X27251346Y-14285714D01*
X27251346Y-14285714D02*
X27465632Y-14285714D01*
X27465632Y-14285714D02*
X27751346Y-14357142D01*
X27751346Y-14357142D02*
X27894203Y-14428571D01*
X27894203Y-14428571D02*
X28037060Y-14571428D01*
X28037060Y-14571428D02*
X28108489Y-14785714D01*
X28108489Y-14785714D02*
X28108489Y-14928571D01*
X28108489Y-14928571D02*
X28037060Y-15142857D01*
X28037060Y-15142857D02*
X27965632Y-15214285D01*
X26608489Y-16999999D02*
X28108489Y-16999999D01*
X28108489Y-16999999D02*
X28108489Y-17357142D01*
X28108489Y-17357142D02*
X28037060Y-17571428D01*
X28037060Y-17571428D02*
X27894203Y-17714285D01*
X27894203Y-17714285D02*
X27751346Y-17785714D01*
X27751346Y-17785714D02*
X27465632Y-17857142D01*
X27465632Y-17857142D02*
X27251346Y-17857142D01*
X27251346Y-17857142D02*
X26965632Y-17785714D01*
X26965632Y-17785714D02*
X26822775Y-17714285D01*
X26822775Y-17714285D02*
X26679918Y-17571428D01*
X26679918Y-17571428D02*
X26608489Y-17357142D01*
X26608489Y-17357142D02*
X26608489Y-16999999D01*
X26608489Y-19142857D02*
X27394203Y-19142857D01*
X27394203Y-19142857D02*
X27537060Y-19071428D01*
X27537060Y-19071428D02*
X27608489Y-18928571D01*
X27608489Y-18928571D02*
X27608489Y-18642857D01*
X27608489Y-18642857D02*
X27537060Y-18499999D01*
X26679918Y-19142857D02*
X26608489Y-18999999D01*
X26608489Y-18999999D02*
X26608489Y-18642857D01*
X26608489Y-18642857D02*
X26679918Y-18499999D01*
X26679918Y-18499999D02*
X26822775Y-18428571D01*
X26822775Y-18428571D02*
X26965632Y-18428571D01*
X26965632Y-18428571D02*
X27108489Y-18499999D01*
X27108489Y-18499999D02*
X27179918Y-18642857D01*
X27179918Y-18642857D02*
X27179918Y-18999999D01*
X27179918Y-18999999D02*
X27251346Y-19142857D01*
X27608489Y-19714285D02*
X26608489Y-20071428D01*
X26608489Y-20071428D02*
X27608489Y-20428571D01*
X26608489Y-20999999D02*
X27608489Y-20999999D01*
X28108489Y-20999999D02*
X28037060Y-20928571D01*
X28037060Y-20928571D02*
X27965632Y-20999999D01*
X27965632Y-20999999D02*
X28037060Y-21071428D01*
X28037060Y-21071428D02*
X28108489Y-20999999D01*
X28108489Y-20999999D02*
X27965632Y-20999999D01*
X26679918Y-21642857D02*
X26608489Y-21785714D01*
X26608489Y-21785714D02*
X26608489Y-22071428D01*
X26608489Y-22071428D02*
X26679918Y-22214285D01*
X26679918Y-22214285D02*
X26822775Y-22285714D01*
X26822775Y-22285714D02*
X26894203Y-22285714D01*
X26894203Y-22285714D02*
X27037060Y-22214285D01*
X27037060Y-22214285D02*
X27108489Y-22071428D01*
X27108489Y-22071428D02*
X27108489Y-21857143D01*
X27108489Y-21857143D02*
X27179918Y-21714285D01*
X27179918Y-21714285D02*
X27322775Y-21642857D01*
X27322775Y-21642857D02*
X27394203Y-21642857D01*
X27394203Y-21642857D02*
X27537060Y-21714285D01*
X27537060Y-21714285D02*
X27608489Y-21857143D01*
X27608489Y-21857143D02*
X27608489Y-22071428D01*
X27608489Y-22071428D02*
X27537060Y-22214285D01*
X24193573Y-15071428D02*
X24907859Y-14571428D01*
X24193573Y-14214285D02*
X25693573Y-14214285D01*
X25693573Y-14214285D02*
X25693573Y-14785714D01*
X25693573Y-14785714D02*
X25622144Y-14928571D01*
X25622144Y-14928571D02*
X25550716Y-15000000D01*
X25550716Y-15000000D02*
X25407859Y-15071428D01*
X25407859Y-15071428D02*
X25193573Y-15071428D01*
X25193573Y-15071428D02*
X25050716Y-15000000D01*
X25050716Y-15000000D02*
X24979287Y-14928571D01*
X24979287Y-14928571D02*
X24907859Y-14785714D01*
X24907859Y-14785714D02*
X24907859Y-14214285D01*
X24765002Y-15714285D02*
X24765002Y-16857143D01*
X24193573Y-18285714D02*
X24193573Y-17571428D01*
X24193573Y-17571428D02*
X25693573Y-17571428D01*
X24193573Y-19428572D02*
X24979287Y-19428572D01*
X24979287Y-19428572D02*
X25122144Y-19357143D01*
X25122144Y-19357143D02*
X25193573Y-19214286D01*
X25193573Y-19214286D02*
X25193573Y-18928572D01*
X25193573Y-18928572D02*
X25122144Y-18785714D01*
X24265002Y-19428572D02*
X24193573Y-19285714D01*
X24193573Y-19285714D02*
X24193573Y-18928572D01*
X24193573Y-18928572D02*
X24265002Y-18785714D01*
X24265002Y-18785714D02*
X24407859Y-18714286D01*
X24407859Y-18714286D02*
X24550716Y-18714286D01*
X24550716Y-18714286D02*
X24693573Y-18785714D01*
X24693573Y-18785714D02*
X24765002Y-18928572D01*
X24765002Y-18928572D02*
X24765002Y-19285714D01*
X24765002Y-19285714D02*
X24836430Y-19428572D01*
X24193573Y-20142857D02*
X25693573Y-20142857D01*
X25122144Y-20142857D02*
X25193573Y-20285715D01*
X25193573Y-20285715D02*
X25193573Y-20571429D01*
X25193573Y-20571429D02*
X25122144Y-20714286D01*
X25122144Y-20714286D02*
X25050716Y-20785715D01*
X25050716Y-20785715D02*
X24907859Y-20857143D01*
X24907859Y-20857143D02*
X24479287Y-20857143D01*
X24479287Y-20857143D02*
X24336430Y-20785715D01*
X24336430Y-20785715D02*
X24265002Y-20714286D01*
X24265002Y-20714286D02*
X24193573Y-20571429D01*
X24193573Y-20571429D02*
X24193573Y-20285715D01*
X24193573Y-20285715D02*
X24265002Y-20142857D01*
X3561678Y-24714285D02*
X2061678Y-24714285D01*
X2061678Y-24214284D02*
X2061678Y-23357142D01*
X3561678Y-23785713D02*
X2061678Y-23785713D01*
X2061678Y-22571427D02*
X2061678Y-22285713D01*
X2061678Y-22285713D02*
X2133107Y-22142856D01*
X2133107Y-22142856D02*
X2275964Y-21999999D01*
X2275964Y-21999999D02*
X2561678Y-21928570D01*
X2561678Y-21928570D02*
X3061678Y-21928570D01*
X3061678Y-21928570D02*
X3347392Y-21999999D01*
X3347392Y-21999999D02*
X3490250Y-22142856D01*
X3490250Y-22142856D02*
X3561678Y-22285713D01*
X3561678Y-22285713D02*
X3561678Y-22571427D01*
X3561678Y-22571427D02*
X3490250Y-22714285D01*
X3490250Y-22714285D02*
X3347392Y-22857142D01*
X3347392Y-22857142D02*
X3061678Y-22928570D01*
X3061678Y-22928570D02*
X2561678Y-22928570D01*
X2561678Y-22928570D02*
X2275964Y-22857142D01*
X2275964Y-22857142D02*
X2133107Y-22714285D01*
X2133107Y-22714285D02*
X2061678Y-22571427D01*
X3490250Y-19571427D02*
X3561678Y-19714284D01*
X3561678Y-19714284D02*
X3561678Y-19999999D01*
X3561678Y-19999999D02*
X3490250Y-20142856D01*
X3490250Y-20142856D02*
X3347392Y-20214284D01*
X3347392Y-20214284D02*
X2775964Y-20214284D01*
X2775964Y-20214284D02*
X2633107Y-20142856D01*
X2633107Y-20142856D02*
X2561678Y-19999999D01*
X2561678Y-19999999D02*
X2561678Y-19714284D01*
X2561678Y-19714284D02*
X2633107Y-19571427D01*
X2633107Y-19571427D02*
X2775964Y-19499999D01*
X2775964Y-19499999D02*
X2918821Y-19499999D01*
X2918821Y-19499999D02*
X3061678Y-20214284D01*
X3561678Y-18642856D02*
X3490250Y-18785713D01*
X3490250Y-18785713D02*
X3347392Y-18857142D01*
X3347392Y-18857142D02*
X2061678Y-18857142D01*
X3490250Y-17499999D02*
X3561678Y-17642856D01*
X3561678Y-17642856D02*
X3561678Y-17928571D01*
X3561678Y-17928571D02*
X3490250Y-18071428D01*
X3490250Y-18071428D02*
X3347392Y-18142856D01*
X3347392Y-18142856D02*
X2775964Y-18142856D01*
X2775964Y-18142856D02*
X2633107Y-18071428D01*
X2633107Y-18071428D02*
X2561678Y-17928571D01*
X2561678Y-17928571D02*
X2561678Y-17642856D01*
X2561678Y-17642856D02*
X2633107Y-17499999D01*
X2633107Y-17499999D02*
X2775964Y-17428571D01*
X2775964Y-17428571D02*
X2918821Y-17428571D01*
X2918821Y-17428571D02*
X3061678Y-18142856D01*
X3490250Y-16142857D02*
X3561678Y-16285714D01*
X3561678Y-16285714D02*
X3561678Y-16571428D01*
X3561678Y-16571428D02*
X3490250Y-16714285D01*
X3490250Y-16714285D02*
X3418821Y-16785714D01*
X3418821Y-16785714D02*
X3275964Y-16857142D01*
X3275964Y-16857142D02*
X2847392Y-16857142D01*
X2847392Y-16857142D02*
X2704535Y-16785714D01*
X2704535Y-16785714D02*
X2633107Y-16714285D01*
X2633107Y-16714285D02*
X2561678Y-16571428D01*
X2561678Y-16571428D02*
X2561678Y-16285714D01*
X2561678Y-16285714D02*
X2633107Y-16142857D01*
X2561678Y-15714285D02*
X2561678Y-15142857D01*
X2061678Y-15500000D02*
X3347392Y-15500000D01*
X3347392Y-15500000D02*
X3490250Y-15428571D01*
X3490250Y-15428571D02*
X3561678Y-15285714D01*
X3561678Y-15285714D02*
X3561678Y-15142857D01*
X3561678Y-14642857D02*
X2561678Y-14642857D01*
X2847392Y-14642857D02*
X2704535Y-14571428D01*
X2704535Y-14571428D02*
X2633107Y-14500000D01*
X2633107Y-14500000D02*
X2561678Y-14357142D01*
X2561678Y-14357142D02*
X2561678Y-14214285D01*
X3561678Y-13714286D02*
X2561678Y-13714286D01*
X2061678Y-13714286D02*
X2133107Y-13785714D01*
X2133107Y-13785714D02*
X2204535Y-13714286D01*
X2204535Y-13714286D02*
X2133107Y-13642857D01*
X2133107Y-13642857D02*
X2061678Y-13714286D01*
X2061678Y-13714286D02*
X2204535Y-13714286D01*
X3490250Y-12357143D02*
X3561678Y-12500000D01*
X3561678Y-12500000D02*
X3561678Y-12785714D01*
X3561678Y-12785714D02*
X3490250Y-12928571D01*
X3490250Y-12928571D02*
X3418821Y-13000000D01*
X3418821Y-13000000D02*
X3275964Y-13071428D01*
X3275964Y-13071428D02*
X2847392Y-13071428D01*
X2847392Y-13071428D02*
X2704535Y-13000000D01*
X2704535Y-13000000D02*
X2633107Y-12928571D01*
X2633107Y-12928571D02*
X2561678Y-12785714D01*
X2561678Y-12785714D02*
X2561678Y-12500000D01*
X2561678Y-12500000D02*
X2633107Y-12357143D01*
X3561678Y-11071429D02*
X2775964Y-11071429D01*
X2775964Y-11071429D02*
X2633107Y-11142857D01*
X2633107Y-11142857D02*
X2561678Y-11285714D01*
X2561678Y-11285714D02*
X2561678Y-11571429D01*
X2561678Y-11571429D02*
X2633107Y-11714286D01*
X3490250Y-11071429D02*
X3561678Y-11214286D01*
X3561678Y-11214286D02*
X3561678Y-11571429D01*
X3561678Y-11571429D02*
X3490250Y-11714286D01*
X3490250Y-11714286D02*
X3347392Y-11785714D01*
X3347392Y-11785714D02*
X3204535Y-11785714D01*
X3204535Y-11785714D02*
X3061678Y-11714286D01*
X3061678Y-11714286D02*
X2990250Y-11571429D01*
X2990250Y-11571429D02*
X2990250Y-11214286D01*
X2990250Y-11214286D02*
X2918821Y-11071429D01*
X3561678Y-10142857D02*
X3490250Y-10285714D01*
X3490250Y-10285714D02*
X3347392Y-10357143D01*
X3347392Y-10357143D02*
X2061678Y-10357143D01*
X5905166Y-23178571D02*
X5976594Y-23321428D01*
X5976594Y-23321428D02*
X5976594Y-23607142D01*
X5976594Y-23607142D02*
X5905166Y-23749999D01*
X5905166Y-23749999D02*
X5833737Y-23821428D01*
X5833737Y-23821428D02*
X5690880Y-23892856D01*
X5690880Y-23892856D02*
X5262308Y-23892856D01*
X5262308Y-23892856D02*
X5119451Y-23821428D01*
X5119451Y-23821428D02*
X5048023Y-23749999D01*
X5048023Y-23749999D02*
X4976594Y-23607142D01*
X4976594Y-23607142D02*
X4976594Y-23321428D01*
X4976594Y-23321428D02*
X5048023Y-23178571D01*
X5976594Y-22321428D02*
X5905166Y-22464285D01*
X5905166Y-22464285D02*
X5833737Y-22535714D01*
X5833737Y-22535714D02*
X5690880Y-22607142D01*
X5690880Y-22607142D02*
X5262308Y-22607142D01*
X5262308Y-22607142D02*
X5119451Y-22535714D01*
X5119451Y-22535714D02*
X5048023Y-22464285D01*
X5048023Y-22464285D02*
X4976594Y-22321428D01*
X4976594Y-22321428D02*
X4976594Y-22107142D01*
X4976594Y-22107142D02*
X5048023Y-21964285D01*
X5048023Y-21964285D02*
X5119451Y-21892857D01*
X5119451Y-21892857D02*
X5262308Y-21821428D01*
X5262308Y-21821428D02*
X5690880Y-21821428D01*
X5690880Y-21821428D02*
X5833737Y-21892857D01*
X5833737Y-21892857D02*
X5905166Y-21964285D01*
X5905166Y-21964285D02*
X5976594Y-22107142D01*
X5976594Y-22107142D02*
X5976594Y-22321428D01*
X4976594Y-21178571D02*
X5976594Y-21178571D01*
X5119451Y-21178571D02*
X5048023Y-21107142D01*
X5048023Y-21107142D02*
X4976594Y-20964285D01*
X4976594Y-20964285D02*
X4976594Y-20749999D01*
X4976594Y-20749999D02*
X5048023Y-20607142D01*
X5048023Y-20607142D02*
X5190880Y-20535714D01*
X5190880Y-20535714D02*
X5976594Y-20535714D01*
X4976594Y-19821428D02*
X5976594Y-19821428D01*
X5119451Y-19821428D02*
X5048023Y-19749999D01*
X5048023Y-19749999D02*
X4976594Y-19607142D01*
X4976594Y-19607142D02*
X4976594Y-19392856D01*
X4976594Y-19392856D02*
X5048023Y-19249999D01*
X5048023Y-19249999D02*
X5190880Y-19178571D01*
X5190880Y-19178571D02*
X5976594Y-19178571D01*
X5905166Y-17892856D02*
X5976594Y-18035713D01*
X5976594Y-18035713D02*
X5976594Y-18321428D01*
X5976594Y-18321428D02*
X5905166Y-18464285D01*
X5905166Y-18464285D02*
X5762308Y-18535713D01*
X5762308Y-18535713D02*
X5190880Y-18535713D01*
X5190880Y-18535713D02*
X5048023Y-18464285D01*
X5048023Y-18464285D02*
X4976594Y-18321428D01*
X4976594Y-18321428D02*
X4976594Y-18035713D01*
X4976594Y-18035713D02*
X5048023Y-17892856D01*
X5048023Y-17892856D02*
X5190880Y-17821428D01*
X5190880Y-17821428D02*
X5333737Y-17821428D01*
X5333737Y-17821428D02*
X5476594Y-18535713D01*
X5905166Y-16535714D02*
X5976594Y-16678571D01*
X5976594Y-16678571D02*
X5976594Y-16964285D01*
X5976594Y-16964285D02*
X5905166Y-17107142D01*
X5905166Y-17107142D02*
X5833737Y-17178571D01*
X5833737Y-17178571D02*
X5690880Y-17249999D01*
X5690880Y-17249999D02*
X5262308Y-17249999D01*
X5262308Y-17249999D02*
X5119451Y-17178571D01*
X5119451Y-17178571D02*
X5048023Y-17107142D01*
X5048023Y-17107142D02*
X4976594Y-16964285D01*
X4976594Y-16964285D02*
X4976594Y-16678571D01*
X4976594Y-16678571D02*
X5048023Y-16535714D01*
X4976594Y-16107142D02*
X4976594Y-15535714D01*
X4476594Y-15892857D02*
X5762308Y-15892857D01*
X5762308Y-15892857D02*
X5905166Y-15821428D01*
X5905166Y-15821428D02*
X5976594Y-15678571D01*
X5976594Y-15678571D02*
X5976594Y-15535714D01*
X5976594Y-15035714D02*
X4976594Y-15035714D01*
X4476594Y-15035714D02*
X4548023Y-15107142D01*
X4548023Y-15107142D02*
X4619451Y-15035714D01*
X4619451Y-15035714D02*
X4548023Y-14964285D01*
X4548023Y-14964285D02*
X4476594Y-15035714D01*
X4476594Y-15035714D02*
X4619451Y-15035714D01*
X4976594Y-14464285D02*
X5976594Y-14107142D01*
X5976594Y-14107142D02*
X4976594Y-13749999D01*
X5976594Y-13178571D02*
X4976594Y-13178571D01*
X4476594Y-13178571D02*
X4548023Y-13249999D01*
X4548023Y-13249999D02*
X4619451Y-13178571D01*
X4619451Y-13178571D02*
X4548023Y-13107142D01*
X4548023Y-13107142D02*
X4476594Y-13178571D01*
X4476594Y-13178571D02*
X4619451Y-13178571D01*
X4976594Y-12678570D02*
X4976594Y-12107142D01*
X4476594Y-12464285D02*
X5762308Y-12464285D01*
X5762308Y-12464285D02*
X5905166Y-12392856D01*
X5905166Y-12392856D02*
X5976594Y-12249999D01*
X5976594Y-12249999D02*
X5976594Y-12107142D01*
X4976594Y-11749999D02*
X5976594Y-11392856D01*
X4976594Y-11035713D02*
X5976594Y-11392856D01*
X5976594Y-11392856D02*
X6333737Y-11535713D01*
X6333737Y-11535713D02*
X6405166Y-11607142D01*
X6405166Y-11607142D02*
X6476594Y-11749999D01*
X7391510Y-23035713D02*
X7391510Y-22464285D01*
X6891510Y-22821428D02*
X8177224Y-22821428D01*
X8177224Y-22821428D02*
X8320082Y-22749999D01*
X8320082Y-22749999D02*
X8391510Y-22607142D01*
X8391510Y-22607142D02*
X8391510Y-22464285D01*
X8320082Y-21392856D02*
X8391510Y-21535713D01*
X8391510Y-21535713D02*
X8391510Y-21821428D01*
X8391510Y-21821428D02*
X8320082Y-21964285D01*
X8320082Y-21964285D02*
X8177224Y-22035713D01*
X8177224Y-22035713D02*
X7605796Y-22035713D01*
X7605796Y-22035713D02*
X7462939Y-21964285D01*
X7462939Y-21964285D02*
X7391510Y-21821428D01*
X7391510Y-21821428D02*
X7391510Y-21535713D01*
X7391510Y-21535713D02*
X7462939Y-21392856D01*
X7462939Y-21392856D02*
X7605796Y-21321428D01*
X7605796Y-21321428D02*
X7748653Y-21321428D01*
X7748653Y-21321428D02*
X7891510Y-22035713D01*
X8320082Y-20749999D02*
X8391510Y-20607142D01*
X8391510Y-20607142D02*
X8391510Y-20321428D01*
X8391510Y-20321428D02*
X8320082Y-20178571D01*
X8320082Y-20178571D02*
X8177224Y-20107142D01*
X8177224Y-20107142D02*
X8105796Y-20107142D01*
X8105796Y-20107142D02*
X7962939Y-20178571D01*
X7962939Y-20178571D02*
X7891510Y-20321428D01*
X7891510Y-20321428D02*
X7891510Y-20535714D01*
X7891510Y-20535714D02*
X7820082Y-20678571D01*
X7820082Y-20678571D02*
X7677224Y-20749999D01*
X7677224Y-20749999D02*
X7605796Y-20749999D01*
X7605796Y-20749999D02*
X7462939Y-20678571D01*
X7462939Y-20678571D02*
X7391510Y-20535714D01*
X7391510Y-20535714D02*
X7391510Y-20321428D01*
X7391510Y-20321428D02*
X7462939Y-20178571D01*
X7391510Y-19678570D02*
X7391510Y-19107142D01*
X6891510Y-19464285D02*
X8177224Y-19464285D01*
X8177224Y-19464285D02*
X8320082Y-19392856D01*
X8320082Y-19392856D02*
X8391510Y-19249999D01*
X8391510Y-19249999D02*
X8391510Y-19107142D01*
X8391510Y-18607142D02*
X7391510Y-18607142D01*
X6891510Y-18607142D02*
X6962939Y-18678570D01*
X6962939Y-18678570D02*
X7034367Y-18607142D01*
X7034367Y-18607142D02*
X6962939Y-18535713D01*
X6962939Y-18535713D02*
X6891510Y-18607142D01*
X6891510Y-18607142D02*
X7034367Y-18607142D01*
X7391510Y-17892856D02*
X8391510Y-17892856D01*
X7534367Y-17892856D02*
X7462939Y-17821427D01*
X7462939Y-17821427D02*
X7391510Y-17678570D01*
X7391510Y-17678570D02*
X7391510Y-17464284D01*
X7391510Y-17464284D02*
X7462939Y-17321427D01*
X7462939Y-17321427D02*
X7605796Y-17249999D01*
X7605796Y-17249999D02*
X8391510Y-17249999D01*
X7391510Y-15892856D02*
X8605796Y-15892856D01*
X8605796Y-15892856D02*
X8748653Y-15964284D01*
X8748653Y-15964284D02*
X8820082Y-16035713D01*
X8820082Y-16035713D02*
X8891510Y-16178570D01*
X8891510Y-16178570D02*
X8891510Y-16392856D01*
X8891510Y-16392856D02*
X8820082Y-16535713D01*
X8320082Y-15892856D02*
X8391510Y-16035713D01*
X8391510Y-16035713D02*
X8391510Y-16321427D01*
X8391510Y-16321427D02*
X8320082Y-16464284D01*
X8320082Y-16464284D02*
X8248653Y-16535713D01*
X8248653Y-16535713D02*
X8105796Y-16607141D01*
X8105796Y-16607141D02*
X7677224Y-16607141D01*
X7677224Y-16607141D02*
X7534367Y-16535713D01*
X7534367Y-16535713D02*
X7462939Y-16464284D01*
X7462939Y-16464284D02*
X7391510Y-16321427D01*
X7391510Y-16321427D02*
X7391510Y-16035713D01*
X7391510Y-16035713D02*
X7462939Y-15892856D01*
X7391510Y-14178570D02*
X8391510Y-13821427D01*
X8391510Y-13821427D02*
X7391510Y-13464284D01*
X8391510Y-12107141D02*
X8391510Y-12964284D01*
X8391510Y-12535713D02*
X6891510Y-12535713D01*
X6891510Y-12535713D02*
X7105796Y-12678570D01*
X7105796Y-12678570D02*
X7248653Y-12821427D01*
X7248653Y-12821427D02*
X7320082Y-12964284D01*
D11*
X14750000Y-14750000D02*
X20250000Y-14750000D01*
X20250000Y-20250000D01*
X14750000Y-20250000D01*
X14750000Y-14750000D01*
D12*
X28916666Y-27868273D02*
X29273809Y-27987321D01*
X29273809Y-27987321D02*
X29392856Y-28106369D01*
X29392856Y-28106369D02*
X29511904Y-28344464D01*
X29511904Y-28344464D02*
X29511904Y-28701607D01*
X29511904Y-28701607D02*
X29392856Y-28939702D01*
X29392856Y-28939702D02*
X29273809Y-29058750D01*
X29273809Y-29058750D02*
X29035714Y-29177797D01*
X29035714Y-29177797D02*
X28083333Y-29177797D01*
X28083333Y-29177797D02*
X28083333Y-26677797D01*
X28083333Y-26677797D02*
X28916666Y-26677797D01*
X28916666Y-26677797D02*
X29154761Y-26796845D01*
X29154761Y-26796845D02*
X29273809Y-26915892D01*
X29273809Y-26915892D02*
X29392856Y-27153988D01*
X29392856Y-27153988D02*
X29392856Y-27392083D01*
X29392856Y-27392083D02*
X29273809Y-27630178D01*
X29273809Y-27630178D02*
X29154761Y-27749226D01*
X29154761Y-27749226D02*
X28916666Y-27868273D01*
X28916666Y-27868273D02*
X28083333Y-27868273D01*
X31654761Y-27511130D02*
X31654761Y-29177797D01*
X31059523Y-26558750D02*
X30464285Y-28344464D01*
X30464285Y-28344464D02*
X32011904Y-28344464D01*
X31714284Y-6536488D02*
X30523808Y-6536488D01*
X31952379Y-5822202D02*
X31119046Y-8322202D01*
X31119046Y-8322202D02*
X30285713Y-5822202D01*
X28142856Y-5822202D02*
X29571427Y-5822202D01*
X28857141Y-5822202D02*
X28857141Y-8322202D01*
X28857141Y-8322202D02*
X29095237Y-7965059D01*
X29095237Y-7965059D02*
X29333332Y-7726964D01*
X29333332Y-7726964D02*
X29571427Y-7607916D01*
X20630952Y-27868273D02*
X20988095Y-27987321D01*
X20988095Y-27987321D02*
X21107142Y-28106369D01*
X21107142Y-28106369D02*
X21226190Y-28344464D01*
X21226190Y-28344464D02*
X21226190Y-28701607D01*
X21226190Y-28701607D02*
X21107142Y-28939702D01*
X21107142Y-28939702D02*
X20988095Y-29058750D01*
X20988095Y-29058750D02*
X20750000Y-29177797D01*
X20750000Y-29177797D02*
X19797619Y-29177797D01*
X19797619Y-29177797D02*
X19797619Y-26677797D01*
X19797619Y-26677797D02*
X20630952Y-26677797D01*
X20630952Y-26677797D02*
X20869047Y-26796845D01*
X20869047Y-26796845D02*
X20988095Y-26915892D01*
X20988095Y-26915892D02*
X21107142Y-27153988D01*
X21107142Y-27153988D02*
X21107142Y-27392083D01*
X21107142Y-27392083D02*
X20988095Y-27630178D01*
X20988095Y-27630178D02*
X20869047Y-27749226D01*
X20869047Y-27749226D02*
X20630952Y-27868273D01*
X20630952Y-27868273D02*
X19797619Y-27868273D01*
X22059523Y-26677797D02*
X23607142Y-26677797D01*
X23607142Y-26677797D02*
X22773809Y-27630178D01*
X22773809Y-27630178D02*
X23130952Y-27630178D01*
X23130952Y-27630178D02*
X23369047Y-27749226D01*
X23369047Y-27749226D02*
X23488095Y-27868273D01*
X23488095Y-27868273D02*
X23607142Y-28106369D01*
X23607142Y-28106369D02*
X23607142Y-28701607D01*
X23607142Y-28701607D02*
X23488095Y-28939702D01*
X23488095Y-28939702D02*
X23369047Y-29058750D01*
X23369047Y-29058750D02*
X23130952Y-29177797D01*
X23130952Y-29177797D02*
X22416666Y-29177797D01*
X22416666Y-29177797D02*
X22178571Y-29058750D01*
X22178571Y-29058750D02*
X22059523Y-28939702D01*
X23428570Y-6536488D02*
X22238094Y-6536488D01*
X23666665Y-5822202D02*
X22833332Y-8322202D01*
X22833332Y-8322202D02*
X21999999Y-5822202D01*
X21285713Y-8084107D02*
X21166665Y-8203154D01*
X21166665Y-8203154D02*
X20928570Y-8322202D01*
X20928570Y-8322202D02*
X20333332Y-8322202D01*
X20333332Y-8322202D02*
X20095237Y-8203154D01*
X20095237Y-8203154D02*
X19976189Y-8084107D01*
X19976189Y-8084107D02*
X19857142Y-7846011D01*
X19857142Y-7846011D02*
X19857142Y-7607916D01*
X19857142Y-7607916D02*
X19976189Y-7250773D01*
X19976189Y-7250773D02*
X21404761Y-5822202D01*
X21404761Y-5822202D02*
X19857142Y-5822202D01*
X12345237Y-27868273D02*
X12702380Y-27987321D01*
X12702380Y-27987321D02*
X12821427Y-28106369D01*
X12821427Y-28106369D02*
X12940475Y-28344464D01*
X12940475Y-28344464D02*
X12940475Y-28701607D01*
X12940475Y-28701607D02*
X12821427Y-28939702D01*
X12821427Y-28939702D02*
X12702380Y-29058750D01*
X12702380Y-29058750D02*
X12464285Y-29177797D01*
X12464285Y-29177797D02*
X11511904Y-29177797D01*
X11511904Y-29177797D02*
X11511904Y-26677797D01*
X11511904Y-26677797D02*
X12345237Y-26677797D01*
X12345237Y-26677797D02*
X12583332Y-26796845D01*
X12583332Y-26796845D02*
X12702380Y-26915892D01*
X12702380Y-26915892D02*
X12821427Y-27153988D01*
X12821427Y-27153988D02*
X12821427Y-27392083D01*
X12821427Y-27392083D02*
X12702380Y-27630178D01*
X12702380Y-27630178D02*
X12583332Y-27749226D01*
X12583332Y-27749226D02*
X12345237Y-27868273D01*
X12345237Y-27868273D02*
X11511904Y-27868273D01*
X13892856Y-26915892D02*
X14011904Y-26796845D01*
X14011904Y-26796845D02*
X14249999Y-26677797D01*
X14249999Y-26677797D02*
X14845237Y-26677797D01*
X14845237Y-26677797D02*
X15083332Y-26796845D01*
X15083332Y-26796845D02*
X15202380Y-26915892D01*
X15202380Y-26915892D02*
X15321427Y-27153988D01*
X15321427Y-27153988D02*
X15321427Y-27392083D01*
X15321427Y-27392083D02*
X15202380Y-27749226D01*
X15202380Y-27749226D02*
X13773808Y-29177797D01*
X13773808Y-29177797D02*
X15321427Y-29177797D01*
X15142855Y-6536488D02*
X13952379Y-6536488D01*
X15380950Y-5822202D02*
X14547617Y-8322202D01*
X14547617Y-8322202D02*
X13714284Y-5822202D01*
X13119046Y-8322202D02*
X11571427Y-8322202D01*
X11571427Y-8322202D02*
X12404760Y-7369821D01*
X12404760Y-7369821D02*
X12047617Y-7369821D01*
X12047617Y-7369821D02*
X11809522Y-7250773D01*
X11809522Y-7250773D02*
X11690474Y-7131726D01*
X11690474Y-7131726D02*
X11571427Y-6893630D01*
X11571427Y-6893630D02*
X11571427Y-6298392D01*
X11571427Y-6298392D02*
X11690474Y-6060297D01*
X11690474Y-6060297D02*
X11809522Y-5941250D01*
X11809522Y-5941250D02*
X12047617Y-5822202D01*
X12047617Y-5822202D02*
X12761903Y-5822202D01*
X12761903Y-5822202D02*
X12999998Y-5941250D01*
X12999998Y-5941250D02*
X13119046Y-6060297D01*
X4059523Y-27868273D02*
X4416666Y-27987321D01*
X4416666Y-27987321D02*
X4535713Y-28106369D01*
X4535713Y-28106369D02*
X4654761Y-28344464D01*
X4654761Y-28344464D02*
X4654761Y-28701607D01*
X4654761Y-28701607D02*
X4535713Y-28939702D01*
X4535713Y-28939702D02*
X4416666Y-29058750D01*
X4416666Y-29058750D02*
X4178571Y-29177797D01*
X4178571Y-29177797D02*
X3226190Y-29177797D01*
X3226190Y-29177797D02*
X3226190Y-26677797D01*
X3226190Y-26677797D02*
X4059523Y-26677797D01*
X4059523Y-26677797D02*
X4297618Y-26796845D01*
X4297618Y-26796845D02*
X4416666Y-26915892D01*
X4416666Y-26915892D02*
X4535713Y-27153988D01*
X4535713Y-27153988D02*
X4535713Y-27392083D01*
X4535713Y-27392083D02*
X4416666Y-27630178D01*
X4416666Y-27630178D02*
X4297618Y-27749226D01*
X4297618Y-27749226D02*
X4059523Y-27868273D01*
X4059523Y-27868273D02*
X3226190Y-27868273D01*
X7035713Y-29177797D02*
X5607142Y-29177797D01*
X6321428Y-29177797D02*
X6321428Y-26677797D01*
X6321428Y-26677797D02*
X6083332Y-27034940D01*
X6083332Y-27034940D02*
X5845237Y-27273035D01*
X5845237Y-27273035D02*
X5607142Y-27392083D01*
X6857141Y-6536488D02*
X5666665Y-6536488D01*
X7095236Y-5822202D02*
X6261903Y-8322202D01*
X6261903Y-8322202D02*
X5428570Y-5822202D01*
X3523808Y-7488869D02*
X3523808Y-5822202D01*
X4119046Y-8441250D02*
X4714284Y-6655535D01*
X4714284Y-6655535D02*
X3166665Y-6655535D01*
D13*
X26357142Y-30500000D02*
X33500000Y-30500000D01*
X33500000Y-33500000D01*
X26357142Y-33500000D01*
X26357142Y-30500000D01*
X26357142Y-1500000D02*
X33500000Y-1500000D01*
X33500000Y-4500000D01*
X26357142Y-4500000D01*
X26357142Y-1500000D01*
X18071428Y-30500000D02*
X25214285Y-30500000D01*
X25214285Y-33500000D01*
X18071428Y-33500000D01*
X18071428Y-30500000D01*
X18071428Y-1500000D02*
X25214285Y-1500000D01*
X25214285Y-4500000D01*
X18071428Y-4500000D01*
X18071428Y-1500000D01*
X9785714Y-30500000D02*
X16928571Y-30500000D01*
X16928571Y-33500000D01*
X9785714Y-33500000D01*
X9785714Y-30500000D01*
X9785714Y-1500000D02*
X16928571Y-1500000D01*
X16928571Y-4500000D01*
X9785714Y-4500000D01*
X9785714Y-1500000D01*
X1500000Y-30500000D02*
X8642857Y-30500000D01*
X8642857Y-33500000D01*
X1500000Y-33500000D01*
X1500000Y-30500000D01*
X1500000Y-1500000D02*
X8642857Y-1500000D01*
X8642857Y-4500000D01*
X1500000Y-4500000D01*
X1500000Y-1500000D01*
D14*
X32000000Y-32000000D03*
X32000000Y-3000000D03*
X27857142Y-32000000D03*
X27857142Y-3000000D03*
X23714285Y-32000000D03*
X23714285Y-3000000D03*
X19571428Y-32000000D03*
X19571428Y-3000000D03*
X15428571Y-32000000D03*
X15428571Y-3000000D03*
X11285714Y-32000000D03*
X11285714Y-3000000D03*
X7142857Y-32000000D03*
X7142857Y-3000000D03*
X3000000Y-32000000D03*
X3000000Y-3000000D03*
M02*
